<svg width="59" height="58" viewBox="0 0 59 58" fill="none" xmlns="http://www.w3.org/2000/svg">
<g clip-path="url(#clip0_44_2)">
<path fill-rule="evenodd" clip-rule="evenodd" d="M54.431 44.842C55.1316 43.8767 55.6184 42.7732 55.859 41.605L58.935 20.259C58.9771 19.974 58.9581 19.6833 58.8795 19.4061C58.8009 19.1289 58.6644 18.8715 58.479 18.651C58.292 18.4348 58.0604 18.2617 57.8 18.1436C57.5397 18.0255 57.2569 17.9653 56.971 17.967H52.831V15.515C52.8435 13.4811 52.0479 11.5255 50.619 10.078C49.1901 8.63056 47.2449 7.80974 45.211 7.796C43.9333 7.7943 42.6764 8.11962 41.56 8.741V6.168C41.5747 5.36002 41.4282 4.55721 41.1291 3.80648C40.83 3.05574 40.3844 2.37212 39.8182 1.79554C39.252 1.21896 38.5765 0.760985 37.8313 0.448352C37.0861 0.135719 36.2861 -0.0252991 35.478 -0.0252991C34.6699 -0.0252991 33.8699 0.135719 33.1247 0.448352C32.3795 0.760985 31.7041 1.21896 31.1379 1.79554C30.5716 2.37212 30.126 3.05574 29.8269 3.80648C29.5279 4.55721 29.3814 5.36002 29.396 6.168V8.741C28.2792 8.11963 27.022 7.79431 25.744 7.796C23.7082 7.80922 21.7608 8.62926 20.3288 10.0763C18.8967 11.5233 18.097 13.4792 18.105 15.515V17.967H14.493L13.203 13.022C12.7787 11.3569 11.8142 9.87944 10.4605 8.82105C9.1068 7.76266 7.44033 7.18306 5.72202 7.173H1.99102C1.45793 7.173 0.946681 7.38476 0.569733 7.76171C0.192785 8.13866 -0.0189819 8.64991 -0.0189819 9.183C-0.0189819 9.71608 0.192785 10.2273 0.569733 10.6043C0.946681 10.9812 1.45793 11.193 1.99102 11.193H5.72202C6.56097 11.1968 7.37487 11.4793 8.03576 11.9961C8.69665 12.5129 9.16706 13.2347 9.37302 14.048L11.04 20.419L11.06 20.48L13.54 37.706L14.116 41.706C14.3477 42.8464 14.8364 43.9189 15.545 44.842C14.3689 45.5204 13.416 46.5268 12.8028 47.7382C12.1897 48.9496 11.9429 50.3134 12.0926 51.6629C12.2423 53.0123 12.7821 54.2889 13.6459 55.3364C14.5096 56.384 15.66 57.1571 16.9562 57.5611C18.2524 57.9652 19.6383 57.9828 20.9443 57.6116C22.2503 57.2405 23.4199 56.4968 24.3099 55.4715C25.1999 54.4461 25.7718 53.1836 25.9557 51.8384C26.1395 50.4932 25.9273 49.1235 25.345 47.897H44.631C44.1655 48.8405 43.9275 49.8799 43.936 50.932C43.936 52.7819 44.6709 54.556 45.979 55.8641C47.287 57.1721 49.0611 57.907 50.911 57.907C52.7609 57.907 54.535 57.1721 55.8431 55.8641C57.1512 54.556 57.886 52.7819 57.886 50.932C57.8878 49.7044 57.5702 48.4975 56.9644 47.4298C56.3587 46.3621 55.4856 45.4703 54.431 44.842ZM41.552 15.515C41.5358 15.0255 41.6182 14.5378 41.7944 14.0808C41.9705 13.6238 42.2368 13.2069 42.5773 12.8549C42.9178 12.5029 43.3257 12.223 43.7766 12.0318C44.2275 11.8407 44.7123 11.7421 45.202 11.7421C45.6918 11.7421 46.1765 11.8407 46.6274 12.0318C47.0784 12.223 47.4862 12.5029 47.8268 12.8549C48.1673 13.2069 48.4335 13.6238 48.6097 14.0808C48.7858 14.5378 48.8682 15.0255 48.852 15.515V17.967H41.552V15.515ZM33.352 6.168C33.3459 5.88658 33.396 5.60677 33.4995 5.34499C33.603 5.08321 33.7577 4.84473 33.9545 4.64354C34.1514 4.44235 34.3865 4.2825 34.6459 4.17337C34.9054 4.06424 35.184 4.00802 35.4655 4.00802C35.747 4.00802 36.0257 4.06424 36.2851 4.17337C36.5446 4.2825 36.7796 4.44235 36.9765 4.64354C37.1734 4.84473 37.3281 5.08321 37.4315 5.34499C37.535 5.60677 37.5851 5.88658 37.579 6.168V17.968H33.352V6.168ZM22.061 15.515C22.053 15.0291 22.1418 14.5464 22.3222 14.0951C22.5026 13.6439 22.771 13.233 23.1118 12.8865C23.4526 12.5401 23.8589 12.2649 24.3072 12.0771C24.7554 11.8892 25.2365 11.7925 25.7225 11.7925C26.2085 11.7925 26.6896 11.8892 27.1379 12.0771C27.5861 12.2649 27.9925 12.5401 28.3332 12.8865C28.674 13.233 28.9425 13.6439 29.1229 14.0951C29.3033 14.5464 29.392 15.0291 29.384 15.515V17.967H22.061V15.515ZM19.045 53.967C18.4433 53.9739 17.8531 53.8019 17.3494 53.4726C16.8457 53.1434 16.4513 52.6718 16.2162 52.1179C15.9811 51.564 15.916 50.9527 16.0291 50.3616C16.1423 49.7706 16.4285 49.2266 16.8515 48.7986C17.2746 48.3706 17.8153 48.0781 18.4049 47.9581C18.9946 47.8382 19.6066 47.8962 20.1632 48.1248C20.7198 48.3535 21.1959 48.7424 21.531 49.2423C21.8661 49.7421 22.045 50.3302 22.045 50.932C22.0464 51.7299 21.733 52.4962 21.1728 53.0644C20.6126 53.6327 19.8509 53.957 19.053 53.967H19.045ZM21.565 43.877C20.7365 43.8761 19.9331 43.5927 19.2873 43.0737C18.6415 42.5546 18.192 41.8309 18.013 41.022L17.775 39.314H32.575C33.1081 39.314 33.6194 39.1022 33.9963 38.7253C34.3733 38.3483 34.585 37.8371 34.585 37.304C34.585 36.7709 34.3733 36.2597 33.9963 35.8827C33.6194 35.5058 33.1081 35.294 32.575 35.294H17.175L15.25 21.987H54.68L51.941 40.922C51.7772 41.7507 51.3323 42.4974 50.6814 43.0358C50.0305 43.5742 49.2137 43.8714 48.369 43.877H21.573H21.565ZM50.894 53.967C50.293 53.9706 49.7045 53.7956 49.203 53.4643C48.7015 53.133 48.3097 52.6602 48.0772 52.106C47.8448 51.5517 47.7821 50.9409 47.8972 50.351C48.0122 49.7611 48.2998 49.2186 48.7236 48.7924C49.1473 48.3661 49.688 48.0753 50.2773 47.9567C50.8665 47.8381 51.4776 47.8972 52.0333 48.1263C52.5889 48.3555 53.064 48.7445 53.3983 49.244C53.7325 49.7435 53.911 50.331 53.911 50.932C53.9134 51.7332 53.598 52.5026 53.0339 53.0715C52.4699 53.6405 51.7032 53.9625 50.902 53.967H50.894Z" fill="black"/>
</g>
<defs>
<clipPath id="clip0_44_2">
<rect width="58.969" height="58" fill="white"/>
</clipPath>
</defs>
</svg>
