<?xml version="1.0" encoding="UTF-8" standalone="no"?>
<svg
   viewBox="0 0 512 512"
   version="1.1"
   id="svg1"
   sodipodi:docname="envelope.svg"
   inkscape:version="1.4 (86a8ad7, 2024-10-11)"
   xmlns:inkscape="http://www.inkscape.org/namespaces/inkscape"
   xmlns:sodipodi="http://sodipodi.sourceforge.net/DTD/sodipodi-0.dtd"
   xmlns="http://www.w3.org/2000/svg"
   xmlns:svg="http://www.w3.org/2000/svg">
  <defs
     id="defs1" />
  <sodipodi:namedview
     id="namedview1"
     pagecolor="#ffffff"
     bordercolor="#999999"
     borderopacity="1"
     inkscape:showpageshadow="2"
     inkscape:pageopacity="0"
     inkscape:pagecheckerboard="0"
     inkscape:deskcolor="#d1d1d1"
     inkscape:zoom="1.6269531"
     inkscape:cx="256"
     inkscape:cy="256"
     inkscape:window-width="1920"
     inkscape:window-height="1051"
     inkscape:window-x="-9"
     inkscape:window-y="-9"
     inkscape:window-maximized="1"
     inkscape:current-layer="svg1" />
  <!--!Font Awesome Free 6.7.2 by @fontawesome - https://fontawesome.com License - https://fontawesome.com/license/free Copyright 2025 Fonticons, Inc.-->
  <path
     d="M64 112c-8.8 0-16 7.2-16 16l0 22.1L220.5 291.7c20.7 17 50.4 17 71.1 0L464 150.1l0-22.1c0-8.8-7.2-16-16-16L64 112zM48 212.2L48 384c0 8.8 7.2 16 16 16l384 0c8.8 0 16-7.2 16-16l0-171.8L322 328.8c-38.4 31.5-93.7 31.5-132 0L48 212.2zM0 128C0 92.7 28.7 64 64 64l384 0c35.3 0 64 28.7 64 64l0 256c0 35.3-28.7 64-64 64L64 448c-35.3 0-64-28.7-64-64L0 128z"
     id="path1" />
  <path
     style="fill:#999999;stroke-width:0.614646;fill-opacity:1"
     d="M 51.015606,446.26515 C 38.346622,443.57218 28.683448,438.19162 19.054022,428.46861 9.5362071,418.85829 4.2952512,409.15249 1.4307973,395.83193 0.36191946,390.86133 0.30732293,384.06604 0.30732293,256 c 0,-128.06604 0.0545965,-134.86133 1.12347437,-139.83193 C 4.2952512,102.84751 9.5362071,93.141714 19.054022,83.531396 28.787293,73.703525 38.426781,68.377372 51.322929,65.701697 56.657468,64.594895 63.956624,64.553965 256,64.553965 c 192.04338,0 199.34253,0.04093 204.67707,1.147732 12.89615,2.675675 22.53563,8.001828 32.26891,17.829699 9.51781,9.610318 14.75877,19.316114 17.62322,32.636674 1.06888,4.9706 1.12348,11.76589 1.12348,139.83193 0,128.06604 -0.0546,134.86133 -1.12348,139.83193 -2.86445,13.32056 -8.10541,23.02636 -17.62322,32.63668 -9.73328,9.82787 -19.37276,15.15402 -32.26891,17.82969 -5.33672,1.10726 -12.56593,1.1465 -204.98439,1.11256 -189.929814,-0.0335 -199.702024,-0.0882 -204.677074,-1.14571 z M 453.13213,399.49177 c 3.57604,-0.99315 7.33202,-4.24112 9.23828,-7.98876 l 1.70611,-3.35415 -0.16311,-88.10971 -0.16311,-88.10969 -71.91357,59.09484 c -39.55246,32.50216 -74.7881,61.03528 -78.30143,63.40691 -34.2013,23.08722 -79.41652,23.48259 -113.64288,0.9937 -3.28441,-2.15806 -17.58846,-13.45839 -31.78678,-25.11185 -14.19832,-11.65345 -46.97431,-38.56715 -72.835532,-59.80823 L 48.2497,211.8847 l -0.16311,88.13208 -0.163109,88.13208 1.699724,3.32016 c 1.895166,3.70193 4.958202,6.48656 8.539194,7.76303 2.004527,0.71453 33.182507,0.85216 197.530281,0.872 132.61858,0.016 195.88364,-0.18019 197.43945,-0.61228 z M 269.66105,303.04083 c 5.92243,-1.43379 11.91287,-4.03434 17.07124,-7.41091 2.02833,-1.32771 42.68716,-34.45287 90.35294,-73.61146 l 86.66507,-71.19745 0.16517,-13.54637 0.16518,-13.54637 -1.72806,-3.30788 c -1.93031,-3.69505 -5.70792,-6.93665 -9.22046,-7.91217 -3.19671,-0.8878 -391.067545,-0.8878 -394.264266,0 -3.503461,0.973 -7.290393,4.21761 -9.208942,7.89013 l -1.716545,3.28584 v 13.42174 13.42174 l 87.433373,71.78238 c 50.47952,41.44344 89.43045,72.98497 92.15849,74.62772 5.05158,3.04192 14.44719,6.39391 20.47536,7.30481 5.30393,0.80145 15.77845,0.22007 21.65145,-1.20175 z"
     id="path2" />
</svg>
